# xmcd CD database file
#
# Track frame offsets:
#	150
#	17456
#	30537
#	47429
#	59701
#	78025
#	91520
#	110518
#	137239
#	160396
#
# Disc length: 2365 seconds
#
# Revision: 0
# Processed by: cddbd v1.5.1PL0 Copyright (c) Steve Scherf et al.
# Submitted via: CDex 1.51
#
DISCID=70093b0a
DTITLE=toddle - I dedicate D chord
DYEAR=2005
DGENRE=Rock
TTITLE0=I dedicate D chord
TTITLE1=a sight
TTITLE2=hesitate to see
TTITLE3=bakadana〜
TTITLE4=world wide waddle
TTITLE5=wanderlust
TTITLE6=scene of a girl
TTITLE7=mur mur
TTITLE8=oyster
TTITLE9=so long
EXTD=YEAR: 2005.09/22
EXTT0=
EXTT1=
EXTT2=
EXTT3=
EXTT4=
EXTT5=
EXTT6=
EXTT7=
EXTT8=
EXTT9=
PLAYORDER=
